<?xml version="1.0" encoding="UTF-8" standalone="no"?>
<svg
   version="1.1"
   id="Layer_1"
   x="0px"
   y="0px"
   width="100%"
   viewBox="0 0 840 773"
   enable-background="new 0 0 840 773"
   xml:space="preserve"
   sodipodi:docname="file.svg"
   inkscape:version="1.2.2 (b0a8486541, 2022-12-01)"
   xmlns:inkscape="http://www.inkscape.org/namespaces/inkscape"
   xmlns:sodipodi="http://sodipodi.sourceforge.net/DTD/sodipodi-0.dtd"
   xmlns="http://www.w3.org/2000/svg"
   xmlns:svg="http://www.w3.org/2000/svg"><defs
   id="defs31" /><sodipodi:namedview
   id="namedview29"
   pagecolor="#505050"
   bordercolor="#eeeeee"
   borderopacity="1"
   inkscape:showpageshadow="0"
   inkscape:pageopacity="0"
   inkscape:pagecheckerboard="0"
   inkscape:deskcolor="#505050"
   showgrid="false"
   inkscape:zoom="0.9632386"
   inkscape:cx="665.98244"
   inkscape:cy="370.1056"
   inkscape:window-width="2560"
   inkscape:window-height="1371"
   inkscape:window-x="0"
   inkscape:window-y="0"
   inkscape:window-maximized="1"
   inkscape:current-layer="Layer_1" />

<path
   fill="#060606"
   opacity="1.000000"
   stroke="none"
   d=" M805.106018,434.000000   C805.125916,330.003296 805.195801,226.506577 805.135132,123.009926   C805.112061,83.659180 781.876343,51.498886 745.842712,41.814571   C736.828918,39.392059 727.088379,38.853588 717.680237,38.842274   C582.518127,38.679722 447.355804,38.755692 312.193512,38.774559   C247.695602,38.783562 183.197571,38.718822 118.699837,38.829151   C77.629150,38.899406 45.486374,65.325340 37.564053,105.522652   C36.382122,111.519699 35.965172,117.757607 35.964725,123.884140   C35.955605,250.046768 36.057766,376.209412 36.140087,502.372040   C36.145638,510.875336 32.540165,515.939148 25.677572,517.030762   C16.865784,518.432373 10.152245,512.607422 10.134790,503.282562   C10.073651,470.616974 10.090443,437.951263 10.098292,405.285583   C10.120718,311.955414 10.178526,218.625259 10.159839,125.295113   C10.156258,107.408180 12.715404,90.039902 20.786261,73.923340   C40.584362,34.388855 72.866890,13.236118 116.940948,13.045192   C246.767792,12.482788 376.598572,12.832205 506.427826,12.823887   C578.758911,12.819253 651.090088,12.736187 723.420959,12.832129   C779.440247,12.906434 825.055847,54.588383 830.059326,110.292870   C830.892029,119.563606 830.872925,128.930634 830.875244,138.253265   C830.917603,308.747986 830.867676,479.242767 830.941650,649.737488   C830.951904,673.307007 826.029724,695.483826 812.599487,715.055176   C790.623230,747.080200 759.669434,762.996460 721.027344,763.178650   C651.197754,763.507996 581.365662,763.332214 511.534637,763.352173   C381.039001,763.389404 250.543335,763.451416 120.047714,763.422668   C85.768127,763.415100 57.071468,750.680908 34.868385,724.412476   C18.435680,704.970886 10.774480,681.977844 10.349682,656.749634   C9.875544,628.591125 10.089923,600.420288 10.103739,572.254822   C10.107805,563.963440 15.725360,558.022461 23.082411,558.110779   C30.587627,558.200989 36.121986,564.060791 36.130203,572.202698   C36.157787,599.535095 35.860649,626.869995 36.146683,654.199219   C36.524933,690.339905 57.699638,720.897949 90.094017,732.632446   C101.361725,736.714050 113.121941,737.658997 125.021606,737.660889   C234.018204,737.678284 343.014801,737.755005 452.011414,737.773071   C541.342041,737.787842 630.672607,737.721924 720.003235,737.749023   C739.638977,737.754944 757.493225,732.408508 773.053101,720.306885   C794.306335,703.777527 804.934814,681.693542 805.026123,654.985352   C805.277466,581.490967 805.107422,507.995209 805.106018,434.000000  z"
   id="path4" />
<path
   fill="#050505"
   opacity="1.000000"
   stroke="none"
   d=" M292.393829,203.391144   C318.292786,179.843002 346.194031,159.889038 377.719238,145.180862   C424.071991,123.554840 471.925751,119.503845 521.360718,132.256134   C523.959900,132.926620 526.923096,132.810150 529.614319,132.395187   C543.586548,130.240829 557.457703,127.252731 571.491211,125.714218   C594.961609,123.141144 614.952454,136.598022 620.875793,159.486923   C624.654419,174.088623 626.677551,189.166458 629.025452,204.103470   C629.740417,208.652130 630.763733,212.612930 633.539673,216.430038   C659.816772,252.561844 669.468689,293.467072 667.643005,337.516663   C665.572449,387.473267 650.763428,433.953918 628.231201,478.143158   C609.583984,514.713379 586.222229,548.027100 557.052429,577.064209   C527.131287,606.849121 492.408905,628.083496 450.515198,636.524353   C429.589020,640.740601 408.516785,641.093994 387.348297,639.555420   C377.720276,638.855652 368.119293,637.792358 358.499054,636.975891   C333.681641,634.869751 310.137207,639.391418 287.859619,650.566895   C279.962646,654.528381 271.666534,656.521301 262.750519,655.240723   C249.751755,653.373901 239.146027,643.164246 237.118423,630.090881   C236.432571,625.668579 235.761612,621.062195 236.248230,616.668884   C239.824066,584.384705 229.625168,556.158325 212.243607,529.546570   C195.898651,504.521973 184.653915,477.276184 179.932083,447.535583   C173.522842,407.167023 179.870255,368.580505 196.564178,331.636566   C218.995483,281.995667 252.433685,240.443802 292.393829,203.391144  M363.594513,555.032837   C381.804535,559.720032 400.128265,560.080017 418.558960,556.491455   C450.224731,550.325806 476.277191,533.935974 498.948151,511.748474   C535.423218,476.051147 561.067200,433.377838 578.299683,385.600952   C600.114136,325.120697 607.545410,262.764618 600.674194,198.845978   C599.491272,187.841736 596.892456,176.863327 593.729614,166.235474   C590.824219,156.472366 584.171265,152.705078 573.927856,152.868347   C571.435608,152.908051 568.881714,152.921616 566.468323,153.454758   C548.455872,157.433792 530.129517,160.422653 512.538940,165.804932   C444.398438,186.654266 385.801666,223.319092 337.215637,275.432587   C311.634460,302.870972 290.383881,333.464813 276.515808,368.628571   C263.691376,401.146179 259.454529,434.681183 270.619568,468.284576   C285.593628,513.352051 317.727966,541.264221 363.594513,555.032837  M272.184845,314.740662   C319.585907,240.209732 385.467712,187.729752 467.342041,152.225281   C464.220673,152.225281 462.643188,152.177124 461.069336,152.232346   C425.703918,153.472931 393.440918,164.816467 363.872040,183.573288   C306.592926,219.907913 261.799286,268.258240 229.325470,327.710175   C215.921356,352.249939 206.950241,378.539490 205.187302,406.844604   C203.062881,440.953461 211.590057,472.471985 228.248810,501.998962   C234.952942,513.881775 242.423813,525.359741 248.627716,537.491394   C261.779724,563.209961 265.686066,590.818665 263.997620,619.439636   C263.486359,628.105957 266.529266,629.842285 274.444580,626.758667   C286.809937,621.941345 299.100342,616.706360 311.836243,613.115845   C333.231506,607.083984 355.086273,609.219177 376.843872,611.559143   C398.442810,613.882019 420.049042,614.584290 441.541046,610.478577   C481.623016,602.821594 514.462341,582.279846 542.173340,553.059143   C580.445007,512.702393 608.022949,465.840759 625.757141,413.186859   C639.702454,371.782349 645.147278,329.621429 635.951111,286.352112   C634.614746,280.064331 632.511536,273.939575 630.763245,267.739380   C630.298157,267.842560 629.833130,267.945770 629.368103,268.048950   C629.170349,293.639313 624.712219,318.669647 619.352173,343.535889   C610.344727,385.322723 594.919983,424.684937 573.082153,461.425323   C552.048462,496.812958 526.678223,528.552490 492.940063,552.808899   C455.515869,579.715393 414.220551,591.989441 368.135406,584.037659   C293.155518,571.100342 220.734085,500.829956 239.580658,396.029083   C244.802460,366.992004 257.135620,340.686035 272.184845,314.740662  z"
   id="path6" />
<path
   fill="#050505"
   opacity="1.000000"
   stroke="none"
   d=" M217.821350,158.197952   C207.917145,145.434647 198.047821,133.088654 188.649475,120.393982   C186.422653,117.386116 184.834183,113.263145 184.617859,109.555916   C184.270157,103.596489 188.008255,99.274017 193.361908,97.611259   C199.037918,95.848389 204.012619,97.295204 207.763077,101.764030   C211.713821,106.471481 215.185547,111.577415 218.972946,116.426140   C229.619095,130.055618 240.270798,143.681427 251.030914,157.220764   C254.037964,161.004517 256.383667,164.937836 255.594833,169.926224   C254.740463,175.329102 251.599121,179.101120 246.304749,180.554688   C240.925293,182.031616 235.926285,180.849701 232.268478,176.482315   C227.359024,170.620483 222.760513,164.498215 217.821350,158.197952  z"
   id="path8" />
<path
   fill="#060707"
   opacity="1.000000"
   stroke="none"
   d=" M157.889023,227.313232   C149.517471,225.386337 145.059067,219.327805 146.367981,212.150162   C147.779083,204.412262 154.037949,200.295807 162.161148,201.368210   C176.681702,203.285172 191.232819,204.969437 205.765991,206.792130   C214.542557,207.892853 219.777069,214.096725 218.632278,221.933914   C217.499771,229.687134 211.102280,233.841766 202.407898,232.738708   C187.716263,230.874741 173.005661,229.160294 157.889023,227.313232  z"
   id="path10" />
<path
   fill="#060606"
   opacity="1.000000"
   stroke="none"
   d=" M290.993683,105.946060   C291.335114,102.856606 291.465332,100.182709 291.977783,97.584190   C293.335205,90.701317 299.781097,86.072121 306.609222,86.907135   C313.283264,87.723320 318.502350,93.461136 317.927032,100.407791   C316.762177,114.472275 315.316162,128.521759 313.581207,142.527283   C312.684174,149.768616 305.765778,154.499649 298.767548,153.446518   C291.299500,152.322693 286.407135,146.181427 287.215637,138.568649   C288.355804,127.833061 289.699860,117.119148 290.993683,105.946060  z"
   id="path12" />


<path
   fill="#FB920A"
   opacity="1.000000"
   stroke="none"
   d=" M426.838501,328.825928   C452.343292,290.776794 477.689087,253.055130 502.941132,215.270798   C510.705902,203.652466 520.417786,201.566025 531.720581,209.606140   C540.265198,215.684265 548.666504,221.964005 557.122803,228.166000   C567.620972,235.865540 569.333130,245.189880 561.515381,255.700455   C539.362183,285.484222 517.013000,315.122406 494.695038,344.783386   C477.582794,367.525848 460.432129,390.239624 443.233582,412.916870   C436.831299,421.358643 429.327301,428.253540 418.017944,429.083313   C406.100494,429.957703 396.847229,425.209442 390.598450,415.176849   C384.020264,404.615387 383.952942,393.409271 390.445160,383.007172   C399.428009,368.614441 409.275421,354.761047 418.763977,340.684357   C421.369720,336.818665 424.015869,332.980225 426.838501,328.825928  z"
   id="path18" />
<path
   fill="#050505"
   opacity="1.000000"
   stroke="none"
   d=" M291.618225,377.659210   C303.207214,347.140198 321.300751,321.209381 342.585114,297.308136   C346.239594,293.204376 349.895142,289.099396 353.641083,285.079712   C360.335205,277.896545 368.579346,276.958710 374.679352,282.596985   C380.947815,288.390961 380.432526,296.952972 373.607269,304.101990   C355.028595,323.562073 338.370056,344.469879 325.969025,368.494019   C316.649811,386.547913 310.272827,405.489899 309.219818,425.972809   C308.759491,434.926392 303.319031,440.472351 295.299744,440.249756   C287.585876,440.035614 282.117737,433.609589 282.445923,424.855835   C283.010071,409.808746 285.518463,395.097717 290.474365,380.842560   C290.801910,379.900360 291.131348,378.958801 291.618225,377.659210  z"
   id="path20" />
<path
   fill="#F9940E"
   opacity="1.000000"
   stroke="none"
   d=" M339.457275,444.325195   C365.346222,434.318451 390.537109,446.008667 397.673401,471.018219   C404.299988,494.241364 390.013824,517.968079 366.166840,523.344910   C343.402252,528.477722 319.952972,512.704468 316.003571,489.602417   C312.794067,470.828278 321.575470,453.684326 339.457275,444.325195  M371.197449,488.497711   C373.743744,480.978363 372.121765,474.503937 366.608551,470.179596   C361.832489,466.433563 354.851440,465.913696 349.769135,468.925690   C344.113678,472.277405 340.987640,479.147980 342.215179,485.528137   C343.365173,491.505219 348.325836,496.176849 354.810181,497.389313   C361.246460,498.592743 366.848602,495.743835 371.197449,488.497711  z"
   id="path22" />
<path
   fill="#060606"
   opacity="1.000000"
   stroke="none"
   d=" M391.300629,272.904175   C385.426697,268.292969 383.713562,262.829590 385.848999,256.441162   C388.355499,248.942688 398.087646,241.796982 405.619659,241.924774   C411.255127,242.020401 416.025024,245.232239 417.941345,250.439590   C419.926605,255.834412 419.707520,260.946777 415.194244,265.118927   C412.754120,267.374634 410.223145,269.557739 407.559845,271.540802   C402.611603,275.225159 397.274170,275.955292 391.300629,272.904175  z"
   id="path24"
   inkscape:export-filename="path24.png"
   inkscape:export-xdpi="96"
   inkscape:export-ydpi="96" />

</svg>
